<?xml version="1.0" encoding="utf-8"?>
<!-- Generator: Adobe Illustrator 19.1.0, SVG Export Plug-In . SVG Version: 6.00 Build 0)  -->
<svg version="1.1" id="Layer_1" xmlns="http://www.w3.org/2000/svg" xmlns:xlink="http://www.w3.org/1999/xlink" x="0px" y="0px"
	 viewBox="-215 375.2 180.1 42.8" style="enable-background:new -215 375.2 180.1 42.8;" xml:space="preserve">
<style type="text/css">
	.st0{enable-background:new    ;}
	.st1{fill:#313D46;}
	.st2{fill:none;stroke:#313D46;stroke-width:0.6;stroke-miterlimit:10;}
	.st3{fill:none;stroke:url(#SVGID_1_);stroke-width:4;stroke-miterlimit:10;}
	.st4{fill:#313D46;stroke:#313D46;stroke-width:0.6;stroke-miterlimit:10;}
	.st5{fill:url(#SVGID_2_);}
</style>
<g class="st0">
	<path class="st1" d="M-181.6,389c0,3.8-1.7,5.3-2.4,6c-0.2,0.2-2.9,2.2-6.4,2.1c-1.8-0.1-3.7,0-4.7-0.1c-2.8-0.1-5.2-0.1-8-0.1
		c-1.1,0-2.1,0.1-3.7,0.1c-1.4,0-3.4-0.2-4.6-0.1l-0.1,4.8c-0.1,1.4-0.1,2.7-0.1,3.3c0,0.9-0.1,6.2-0.1,6.2h-1.4c0,0,0.1-1.5,0-1.9
		c-0.1-0.4,0-9.5,0.1-13.5c0.1-5,0-9.6,0-14.6c0-0.1-0.1-1.3,0.1-1.3c1.1,0,2.6,0,3.7,0c5.5-0.1,9.4-0.2,11.9-0.1
		c1.4,0,3.4,0.1,4.8,0.3c2.8,0.4,5.5,1.3,7.8,2.9C-182.6,384.3-181.6,386.7-181.6,389z M-182.9,389c-0.1-3.1-2.1-4.5-4.7-5.9
		c-1.3-0.7-3.4-1-4.8-1.4c-2.2-0.5-5.2-0.3-7.6-0.4c-1.3,0-3.6,0.1-4.9,0.1c-1.6,0-4.9,0-6.5,0.1c0,2.2,0,6.5,0,8.1
		c0,1.3,0,2-0.1,2.9c0,0.9,0.1,2.7,0.1,2.7s2,0,2.5,0.1c1.7,0,3.8,0,5.5,0.1c1.2,0.1,2.4,0,3.7,0c2.1-0.1,3.9,0.1,5.9,0.2
		c2.1,0.1,4.6,0.2,6.6-0.5C-183.1,393.9-182.9,389.6-182.9,389z"/>
	<path class="st1" d="M-155.2,411.2l-5.2-10.5c0,0-2.2-0.1-3.7-0.1c-1.2,0-2.3,0.1-3.3,0l-11.7-0.2c-0.2,0.4-1.4,3-1.4,3
		c-0.2,0.3-1.8,4.3-2,4.8c-0.9,1.9-1.5,3.1-1.5,3.1s-0.3,0.1-0.6,0l-1.1-0.1c0,0,1-2.5,1.3-3.1c1.2-2.4,5.8-12.2,7.1-14.6
		c1-1.8,8-13.7,8-13.7s9.8,18.5,12.2,23.2c0.6,1.2,1.2,2.6,1.8,3.8c0.1,0.3,0.7,1.3,1.1,2.2l1,2.3L-155.2,411.2z M-161,399.1
		c-0.1-0.3-8.3-15.5-8.5-15.9c-0.5,0.8-8.6,15.3-8.8,15.5c0.5,0.2,6.1,0.3,6.6,0.3c2.5,0,2.1,0.1,3.9,0.1
		C-166.3,399.1-161.7,399.2-161,399.1z"/>
	<path class="st1" d="M-119.5,402.2c-0.1,1.9-0.6,3.9-1.7,5.4c-1.8,2.3-5.1,2.7-7.8,3.1c-2.7,0.4-5.1,0.5-7.8,0.4
		c-1.9,0-3.7,0-5.6-0.2c-3.3-0.4-7.1-1.4-7.9-5c-0.2-0.9-0.2-1.9-0.2-1.9l1.5,0.1c0,0-0.1,2,1.6,3.7c1.1,1.1,5.5,1.9,7,1.9
		c4.5,0.1,8.7,0.2,13-0.6c0.5-0.1,2.4-0.4,4.2-1.7c1.9-1.4,2-2.3,2.2-3.3c0.2-1.1,0.4-2.9,0.2-4c-0.3-1.1-0.8-1.6-1.8-2.4
		c-0.5-0.5-1.5-0.8-2.2-1c-2.2-0.7-4.1-0.5-6.4-0.5c-3.1,0.1-6.4-0.1-9.4,0c-2.6,0.1-4.3-0.2-6.8-1.3c-3.9-2.6-4.1-7.6-1.4-11.3
		c1.8-2.3,5.1-2.7,7.8-3.1c2.7-0.4,5.1-0.5,7.8-0.5c1.9,0.1,3.8,0,5.6,0.3c3.3,0.4,7.1,1.4,7.9,5c0.2,0.9,0.2,1.9,0.2,1.9l-1.3-0.1
		c0,0,0.4-2.4-2.1-4c-2.4-1.5-5.6-1.4-7.2-1.5c-4.3-0.2-10.7,0.3-15.1,1.2c-3.7,0.8-5.5,7.1-2.8,9.7c2.5,2.4,6,2.3,9.2,2.2
		c3.1-0.1,6.4,0,9.5-0.1c2.5-0.1,4.3,0,6.6,1.3C-119,398.4-119.4,401-119.5,402.2z"/>
	<path class="st1" d="M-85,402.2c-0.1,1.9-0.6,3.9-1.7,5.4c-1.8,2.3-5.1,2.7-7.8,3.1c-2.7,0.4-5.1,0.5-7.8,0.4c-1.9,0-3.7,0-5.6-0.2
		c-3.3-0.4-7.1-1.4-7.9-5c-0.2-0.9-0.2-1.9-0.2-1.9l1.5,0.1c0,0-0.1,2,1.6,3.7c1.1,1.1,5.5,1.9,7,1.9c4.5,0.1,8.7,0.2,13-0.6
		c0.5-0.1,2.4-0.4,4.2-1.7c1.9-1.4,2-2.3,2.2-3.3c0.2-1.1,0.4-2.9,0.2-4c-0.3-1.1-0.8-1.6-1.8-2.4c-0.5-0.5-1.5-0.8-2.2-1
		c-2.2-0.7-4.1-0.5-6.4-0.5c-3.1,0.1-6.4-0.1-9.4,0c-2.6,0.1-4.3-0.2-6.8-1.3c-3.9-2.6-4.1-7.6-1.4-11.3c1.8-2.3,5.1-2.7,7.8-3.1
		c2.7-0.4,5.1-0.5,7.8-0.5c1.9,0.1,3.8,0,5.6,0.3c3.3,0.4,7.1,1.4,7.9,5c0.2,0.9,0.2,1.9,0.2,1.9l-1.3-0.1c0,0,0.4-2.4-2.1-4
		c-2.4-1.5-5.6-1.4-7.2-1.5c-4.3-0.2-10.7,0.3-15.1,1.2c-3.7,0.8-5.5,7.1-2.8,9.7c2.5,2.4,6,2.3,9.2,2.2c3.1-0.1,6.4,0,9.5-0.1
		c2.5-0.1,4.3,0,6.6,1.3C-84.5,398.4-84.9,401-85,402.2z"/>
	<path class="st1" d="M-79.7,382c-0.2,2.5-0.1,4.9-0.1,7.4l0,7.1l-0.4,12.8v1.9c-0.6,0-0.4,0-1.5,0c0,0,0.1-2.7,0.1-3.5
		c0-4,0.1-8.1,0.2-12.3c0-2.6-0.1-5.2,0-7.8c0-1.3,0-2.7,0-4c0-1.3-0.1-2.5-0.1-3.8h1.8V382z"/>
</g>
<g class="st0">
	<path class="st2" d="M-181.6,389c0,3.8-1.7,5.3-2.4,6c-0.2,0.2-2.9,2.2-6.4,2.1c-1.8-0.1-3.7,0-4.7-0.1c-2.8-0.1-5.2-0.1-8-0.1
		c-1.1,0-2.1,0.1-3.7,0.1c-1.4,0-3.4-0.2-4.6-0.1l-0.1,4.8c-0.1,1.4-0.1,2.7-0.1,3.3c0,0.9-0.1,6.2-0.1,6.2h-1.4c0,0,0.1-1.5,0-1.9
		c-0.1-0.4,0-9.5,0.1-13.5c0.1-5,0-9.6,0-14.6c0-0.1-0.1-1.3,0.1-1.3c1.1,0,2.6,0,3.7,0c5.5-0.1,9.4-0.2,11.9-0.1
		c1.4,0,3.4,0.1,4.8,0.3c2.8,0.4,5.5,1.3,7.8,2.9C-182.6,384.3-181.6,386.7-181.6,389z M-182.9,389c-0.1-3.1-2.1-4.5-4.7-5.9
		c-1.3-0.7-3.4-1-4.8-1.4c-2.2-0.5-5.2-0.3-7.6-0.4c-1.3,0-3.6,0.1-4.9,0.1c-1.6,0-4.9,0-6.5,0.1c0,2.2,0,6.5,0,8.1
		c0,1.3,0,2-0.1,2.9c0,0.9,0.1,2.7,0.1,2.7s2,0,2.5,0.1c1.7,0,3.8,0,5.5,0.1c1.2,0.1,2.4,0,3.7,0c2.1-0.1,3.9,0.1,5.9,0.2
		c2.1,0.1,4.6,0.2,6.6-0.5C-183.1,393.9-182.9,389.6-182.9,389z"/>
	<path class="st2" d="M-155.2,411.2l-5.2-10.5c0,0-2.2-0.1-3.7-0.1c-1.2,0-2.3,0.1-3.3,0l-11.7-0.2c-0.2,0.4-1.4,3-1.4,3
		c-0.2,0.3-1.8,4.3-2,4.8c-0.9,1.9-1.5,3.1-1.5,3.1s-0.3,0.1-0.6,0l-1.1-0.1c0,0,1-2.5,1.3-3.1c1.2-2.4,5.8-12.2,7.1-14.6
		c1-1.8,8-13.7,8-13.7s9.8,18.5,12.2,23.2c0.6,1.2,1.2,2.6,1.8,3.8c0.1,0.3,0.7,1.3,1.1,2.2l1,2.3L-155.2,411.2z M-161,399.1
		c-0.1-0.3-8.3-15.5-8.5-15.9c-0.5,0.8-8.6,15.3-8.8,15.5c0.5,0.2,6.1,0.3,6.6,0.3c2.5,0,2.1,0.1,3.9,0.1
		C-166.3,399.1-161.7,399.2-161,399.1z"/>
	<path class="st2" d="M-119.5,402.2c-0.1,1.9-0.6,3.9-1.7,5.4c-1.8,2.3-5.1,2.7-7.8,3.1c-2.7,0.4-5.1,0.5-7.8,0.4
		c-1.9,0-3.7,0-5.6-0.2c-3.3-0.4-7.1-1.4-7.9-5c-0.2-0.9-0.2-1.9-0.2-1.9l1.5,0.1c0,0-0.1,2,1.6,3.7c1.1,1.1,5.5,1.9,7,1.9
		c4.5,0.1,8.7,0.2,13-0.6c0.5-0.1,2.4-0.4,4.2-1.7c1.9-1.4,2-2.3,2.2-3.3c0.2-1.1,0.4-2.9,0.2-4c-0.3-1.1-0.8-1.6-1.8-2.4
		c-0.5-0.5-1.5-0.8-2.2-1c-2.2-0.7-4.1-0.5-6.4-0.5c-3.1,0.1-6.4-0.1-9.4,0c-2.6,0.1-4.3-0.2-6.8-1.3c-3.9-2.6-4.1-7.6-1.4-11.3
		c1.8-2.3,5.1-2.7,7.8-3.1c2.7-0.4,5.1-0.5,7.8-0.5c1.9,0.1,3.8,0,5.6,0.3c3.3,0.4,7.1,1.4,7.9,5c0.2,0.9,0.2,1.9,0.2,1.9l-1.3-0.1
		c0,0,0.4-2.4-2.1-4c-2.4-1.5-5.6-1.4-7.2-1.5c-4.3-0.2-10.7,0.3-15.1,1.2c-3.7,0.8-5.5,7.1-2.8,9.7c2.5,2.4,6,2.3,9.2,2.2
		c3.1-0.1,6.4,0,9.5-0.1c2.5-0.1,4.3,0,6.6,1.3C-119,398.4-119.4,401-119.5,402.2z"/>
	<path class="st2" d="M-85,402.2c-0.1,1.9-0.6,3.9-1.7,5.4c-1.8,2.3-5.1,2.7-7.8,3.1c-2.7,0.4-5.1,0.5-7.8,0.4c-1.9,0-3.7,0-5.6-0.2
		c-3.3-0.4-7.1-1.4-7.9-5c-0.2-0.9-0.2-1.9-0.2-1.9l1.5,0.1c0,0-0.1,2,1.6,3.7c1.1,1.1,5.5,1.9,7,1.9c4.5,0.1,8.7,0.2,13-0.6
		c0.5-0.1,2.4-0.4,4.2-1.7c1.9-1.4,2-2.3,2.2-3.3c0.2-1.1,0.4-2.9,0.2-4c-0.3-1.1-0.8-1.6-1.8-2.4c-0.5-0.5-1.5-0.8-2.2-1
		c-2.2-0.7-4.1-0.5-6.4-0.5c-3.1,0.1-6.4-0.1-9.4,0c-2.6,0.1-4.3-0.2-6.8-1.3c-3.9-2.6-4.1-7.6-1.4-11.3c1.8-2.3,5.1-2.7,7.8-3.1
		c2.7-0.4,5.1-0.5,7.8-0.5c1.9,0.1,3.8,0,5.6,0.3c3.3,0.4,7.1,1.4,7.9,5c0.2,0.9,0.2,1.9,0.2,1.9l-1.3-0.1c0,0,0.4-2.4-2.1-4
		c-2.4-1.5-5.6-1.4-7.2-1.5c-4.3-0.2-10.7,0.3-15.1,1.2c-3.7,0.8-5.5,7.1-2.8,9.7c2.5,2.4,6,2.3,9.2,2.2c3.1-0.1,6.4,0,9.5-0.1
		c2.5-0.1,4.3,0,6.6,1.3C-84.5,398.4-84.9,401-85,402.2z"/>
	<path class="st2" d="M-79.7,382c-0.2,2.5-0.1,4.9-0.1,7.4l0,7.1l-0.4,12.8v1.9c-0.6,0-0.4,0-1.5,0c0,0,0.1-2.7,0.1-3.5
		c0-4,0.1-8.1,0.2-12.3c0-2.6-0.1-5.2,0-7.8c0-1.3,0-2.7,0-4c0-1.3-0.1-2.5-0.1-3.8h1.8V382z"/>
</g>
<linearGradient id="SVGID_1_" gradientUnits="userSpaceOnUse" x1="55.3416" y1="862.9117" x2="93.8409" y2="862.9117" gradientTransform="matrix(0.7071 0.7071 0.7071 -0.7071 -717.0733 952.8563)">
	<stop  offset="0" style="stop-color:#B8C4C9"/>
	<stop  offset="0.5508" style="stop-color:#6A7A8B"/>
</linearGradient>
<circle class="st3" cx="-54.2" cy="395.4" r="17.2"/>
<g>
	<path class="st4" d="M-40.9,405.3c-1.9,2.7-4.9,4.7-8.2,5.4c-1.8,0.4-3.3,0.5-5,0.6l0,0h-0.1h-0.1l0,0c-1.7,0-3.3-0.2-5.1-0.6
		c-3.3-0.7-6.3-2.7-8.2-5.4c-2-2.9-2.8-8-2.5-11.5c0.1-1.6,0.7-3.2,1.4-4.7c1.3-3,3.9-5.4,6.5-7.2c1.3-0.9,2.9-1.6,4.4-1.9
		c0.9-0.2,1.8-0.3,2.8-0.4h0.8h0.8c0.9,0,1.9,0.1,2.8,0.4c1.5,0.3,3.1,1,4.4,1.9c2.6,1.8,5.1,4.3,6.5,7.2c0.6,1.5,1.2,3.1,1.4,4.7
		C-38.1,397.4-38.8,402.4-40.9,405.3z M-40.1,393.2c-0.5-2.8-1.8-4.9-3.6-6.9c-2.7-3-6.2-4.6-10.1-4.8c-4.2-0.2-8.1,1.6-11,4.8
		c-1.2,1.4-2.4,2.8-3.1,4.6c-0.8,2.2-0.9,4.7-0.6,7.1c0.6,4.8,3.5,9.5,8.2,10.8c2.6,0.7,5.3,1.1,8,0.9c1-0.1,2.1-0.3,3.1-0.6
		c3.7-1.1,6.4-3.7,8.1-7.3c0.3-0.7,0.6-1.4,0.8-2.1C-39.8,397.7-39.7,395.4-40.1,393.2z"/>
</g>
<linearGradient id="SVGID_2_" gradientUnits="userSpaceOnUse" x1="175.8868" y1="680.1594" x2="194.5216" y2="680.1594" gradientTransform="matrix(0.7071 0.7071 0.7071 -0.7071 -668.1754 745.206)">
	<stop  offset="0" style="stop-color:#B8C4C9"/>
	<stop  offset="0.5512" style="stop-color:#6A7A8B"/>
</linearGradient>
<polygon class="st5" points="-59.7,385.4 -43.1,395.2 -59.7,405 "/>
</svg>
