<?xml version="1.0" encoding="utf-8"?>
<!-- Generator: Adobe Illustrator 19.1.0, SVG Export Plug-In . SVG Version: 6.00 Build 0)  -->
<svg version="1.1" id="Layer_1" xmlns="http://www.w3.org/2000/svg" xmlns:xlink="http://www.w3.org/1999/xlink" x="0px" y="0px"
	 viewBox="0 0 38.5 42.8" style="enable-background:new 0 0 38.5 42.8;" xml:space="preserve">
<style type="text/css">
	.st0{fill:none;stroke:url(#SVGID_1_);stroke-width:4;stroke-miterlimit:10;}
	.st1{fill:#313D46;stroke:#313D46;stroke-width:0.6;stroke-miterlimit:10;}
	.st2{fill:url(#SVGID_2_);}
</style>
<linearGradient id="SVGID_1_" gradientUnits="userSpaceOnUse" x1="-48.7254" y1="-124.1632" x2="-10.2262" y2="-124.1632" gradientTransform="matrix(0.7071 0.7071 -0.7071 0.7071 -47.7046 128.8596)">
	<stop  offset="0" style="stop-color:#B8C4C9"/>
	<stop  offset="0.5508" style="stop-color:#6A7A8B"/>
</linearGradient>
<circle class="st0" cx="19.2" cy="20.2" r="17.2"/>
<g>
	<path class="st1" d="M32.5,30.1c-1.9,2.7-4.9,4.7-8.2,5.4c-1.8,0.4-3.3,0.5-5,0.6v0h-0.1h-0.1v0c-1.7,0-3.3-0.2-5.1-0.6
		c-3.3-0.7-6.3-2.7-8.2-5.4c-2-2.9-2.8-8-2.5-11.5c0.1-1.6,0.7-3.2,1.4-4.7c1.3-3,3.9-5.4,6.5-7.2c1.3-0.9,2.9-1.6,4.4-1.9
		c0.9-0.2,1.8-0.3,2.8-0.4h0.8H20c0.9,0,1.9,0.1,2.8,0.4c1.5,0.3,3.1,1,4.4,1.9c2.6,1.8,5.1,4.3,6.5,7.2c0.6,1.5,1.2,3.1,1.4,4.7
		C35.3,22.2,34.6,27.2,32.5,30.1z M33.4,18c-0.5-2.8-1.8-4.9-3.6-6.9c-2.7-3-6.2-4.6-10.1-4.8c-4.2-0.2-8.1,1.6-11,4.8
		c-1.2,1.4-2.4,2.8-3.1,4.6C4.7,18,4.7,20.4,5,22.8c0.6,4.8,3.5,9.5,8.2,10.8c2.6,0.7,5.3,1.1,8,0.9c1-0.1,2.1-0.3,3.1-0.6
		c3.7-1.1,6.4-3.7,8.1-7.3c0.3-0.7,0.6-1.4,0.8-2.1C33.7,22.5,33.7,20.2,33.4,18z"/>
</g>
<linearGradient id="SVGID_2_" gradientUnits="userSpaceOnUse" x1="71.8362" y1="58.576" x2="90.471" y2="58.576" gradientTransform="matrix(0.7071 0.7071 -0.7071 0.7071 1.1933 -78.7907)">
	<stop  offset="0" style="stop-color:#B8C4C9"/>
	<stop  offset="0.5512" style="stop-color:#6A7A8B"/>
</linearGradient>
<polygon class="st2" points="13.7,10.2 30.3,20 13.7,29.8 "/>
</svg>
